<?xml version="1.0" encoding="UTF-8"?>
<!DOCTYPE svg PUBLIC "-//W3C//DTD SVG 1.1//EN" "http://www.w3.org/Graphics/SVG/1.1/DTD/svg11.dtd">
<svg xmlns="http://www.w3.org/2000/svg" version="1.1" width="683px" height="357px" style="shape-rendering:geometricPrecision; text-rendering:geometricPrecision; image-rendering:optimizeQuality; fill-rule:evenodd; clip-rule:evenodd" xmlns:xlink="http://www.w3.org/1999/xlink">
<g><path style="opacity:1" fill="#fefefe" d="M -0.5,-0.5 C 227.167,-0.5 454.833,-0.5 682.5,-0.5C 682.5,118.5 682.5,237.5 682.5,356.5C 454.833,356.5 227.167,356.5 -0.5,356.5C -0.5,237.5 -0.5,118.5 -0.5,-0.5 Z"/></g>
<g><path style="opacity:1" fill="#346de4" d="M 407.5,79.5 C 407.41,82.1522 408.076,84.4855 409.5,86.5C 413.003,103.85 417.169,121.183 422,138.5C 422.667,140.833 422.667,143.167 422,145.5C 406.715,165.787 391.048,185.787 375,205.5C 372.9,208.467 370.066,210.3 366.5,211C 340.167,211.667 313.833,211.667 287.5,211C 286.167,210.333 284.833,209.667 283.5,209C 267.333,188.833 251.167,168.667 235,148.5C 233.236,144.205 233.069,139.871 234.5,135.5C 235.924,133.485 236.59,131.152 236.5,128.5C 240.24,109.389 244.407,90.3887 249,71.5C 250.771,64.3952 255.271,59.8952 262.5,58C 282.985,48.59 303.319,38.9234 323.5,29C 326.928,28.2989 330.262,28.6323 333.5,30C 355.712,40.9394 378.045,51.6061 400.5,62C 405.269,66.7976 407.602,72.6309 407.5,79.5 Z"/></g>
<g><path style="opacity:1" fill="#f8f9fd" d="M 325.5,52.5 C 327.722,52.178 329.556,52.8446 331,54.5C 331.336,58.0005 331.169,61.5005 330.5,65C 330.34,67.4697 331.007,69.6364 332.5,71.5C 344.152,73.9926 354.485,79.1592 363.5,87C 365.167,87.6667 366.833,87.6667 368.5,87C 371.5,84 374.5,81 377.5,78C 383.256,76.8137 384.922,78.9803 382.5,84.5C 379.301,86.8635 375.968,89.0302 372.5,91C 371.74,92.4411 371.074,93.9411 370.5,95.5C 377.401,106.104 380.401,117.771 379.5,130.5C 380.7,131.531 382.034,132.365 383.5,133C 387.619,133.143 391.619,133.81 395.5,135C 396.576,136.726 396.743,138.559 396,140.5C 393.263,141.61 390.429,141.777 387.5,141C 378.979,136.401 373.812,138.901 372,148.5C 368.026,156.307 362.193,162.307 354.5,166.5C 353.369,168.074 353.202,169.741 354,171.5C 356.629,175.115 358.796,178.948 360.5,183C 359.313,187.755 356.813,188.589 353,185.5C 352.25,181.581 350.917,177.915 349,174.5C 347.818,172.643 346.151,171.643 344,171.5C 338.439,173.141 332.773,174.141 327,174.5C 320.77,173.728 314.604,172.895 308.5,172C 305.195,175.895 303.028,180.395 302,185.5C 298.507,188.502 296.007,187.835 294.5,183.5C 296.829,179.649 298.995,175.649 301,171.5C 301.798,169.741 301.631,168.074 300.5,166.5C 290.513,160.023 283.513,151.19 279.5,140C 277.722,139.296 275.888,138.796 274,138.5C 270.317,139.513 266.65,140.513 263,141.5C 257.589,140.342 257.089,137.842 261.5,134C 264.5,133.667 267.5,133.333 270.5,133C 272.676,132.837 274.509,132.004 276,130.5C 275.274,117.958 278.107,106.291 284.5,95.5C 283.926,93.9411 283.26,92.4411 282.5,91C 278.916,88.9586 275.416,86.792 272,84.5C 270.67,79.5023 272.504,77.3357 277.5,78C 280.794,81.9738 284.627,85.1405 289,87.5C 294.883,83.299 301.049,79.4656 307.5,76C 312.839,74.4987 318.173,72.9987 323.5,71.5C 324.655,67.033 324.655,62.533 323.5,58C 323.395,55.8218 324.061,53.9885 325.5,52.5 Z"/></g>
<g><path style="opacity:1" fill="#7b9dec" d="M 407.5,79.5 C 408.924,81.5145 409.59,83.8478 409.5,86.5C 408.076,84.4855 407.41,82.1522 407.5,79.5 Z"/></g>
<g><path style="opacity:1" fill="#82a4ee" d="M 335.5,83.5 C 333.692,84.9179 333.025,86.9179 333.5,89.5C 332.532,87.3926 332.198,85.0593 332.5,82.5C 333.791,82.2627 334.791,82.596 335.5,83.5 Z"/></g>
<g><path style="opacity:1" fill="#376ee4" d="M 315.5,83.5 C 317.833,83.5 320.167,83.5 322.5,83.5C 322.166,90.5071 321.666,97.5071 321,104.5C 320.326,105.578 319.326,106.245 318,106.5C 311.327,103.174 305.16,99.007 299.5,94C 304.419,89.7179 309.752,86.2179 315.5,83.5 Z"/></g>
<g><path style="opacity:1" fill="#326ce4" d="M 335.5,83.5 C 343.14,85.1532 349.806,88.6532 355.5,94C 349.635,98.4266 343.635,102.593 337.5,106.5C 335.971,106.471 334.804,105.804 334,104.5C 333.501,99.5111 333.334,94.5111 333.5,89.5C 333.025,86.9179 333.692,84.9179 335.5,83.5 Z"/></g>
<g><path style="opacity:1" fill="#356de4" d="M 289.5,126.5 C 287.598,123.663 286.931,120.329 287.5,116.5C 288.25,111.418 290.083,106.751 293,102.5C 299.064,107.4 304.564,112.733 309.5,118.5C 309.167,119.167 308.833,119.833 308.5,120.5C 302.21,122.754 295.876,124.754 289.5,126.5 Z"/></g>
<g><path style="opacity:1" fill="#356de4" d="M 366.5,112.5 C 366.898,115.483 367.232,118.483 367.5,121.5C 367.444,123.64 366.777,125.306 365.5,126.5C 359.911,124.852 354.245,123.352 348.5,122C 347.101,120.938 346.101,119.605 345.5,118C 350.634,112.536 356.134,107.369 362,102.5C 364.753,105.256 366.253,108.589 366.5,112.5 Z"/></g>
<g><path style="opacity:1" fill="#386ee4" d="M 324.5,116.5 C 332.504,116.326 335.337,119.992 333,127.5C 331.013,128.218 329.179,129.218 327.5,130.5C 321.813,128.919 319.98,125.252 322,119.5C 323.045,118.627 323.878,117.627 324.5,116.5 Z"/></g>
<g><path style="opacity:1" fill="#99b5f0" d="M 287.5,116.5 C 286.931,120.329 287.598,123.663 289.5,126.5C 288.791,127.404 287.791,127.737 286.5,127.5C 286.185,123.629 286.518,119.962 287.5,116.5 Z"/></g>
<g><path style="opacity:1" fill="#7298eb" d="M 366.5,112.5 C 367.268,113.263 367.768,114.263 368,115.5C 368.499,119.486 368.666,123.486 368.5,127.5C 367.209,127.737 366.209,127.404 365.5,126.5C 366.777,125.306 367.444,123.64 367.5,121.5C 367.232,118.483 366.898,115.483 366.5,112.5 Z"/></g>
<g><path style="opacity:1" fill="#7397eb" d="M 236.5,128.5 C 236.59,131.152 235.924,133.485 234.5,135.5C 234.41,132.848 235.076,130.515 236.5,128.5 Z"/></g>
<g><path style="opacity:1" fill="#6a8fea" d="M 312.5,134.5 C 309.482,134.704 306.482,135.037 303.5,135.5C 304.946,134.06 306.779,133.393 309,133.5C 310.385,133.514 311.551,133.848 312.5,134.5 Z"/></g>
<g><path style="opacity:1" fill="#326ce4" d="M 312.5,134.5 C 313.473,136.068 313.64,137.735 313,139.5C 310.258,144.977 308.092,150.644 306.5,156.5C 299.167,152.831 293.834,147.164 290.5,139.5C 290.557,138.391 290.89,137.391 291.5,136.5C 295.5,136.167 299.5,135.833 303.5,135.5C 306.482,135.037 309.482,134.704 312.5,134.5 Z"/></g>
<g><path style="opacity:1" fill="#366ee4" d="M 343.5,133.5 C 350.867,134.622 358.201,135.955 365.5,137.5C 362.341,145.322 357.341,151.655 350.5,156.5C 346.838,150.366 343.838,143.866 341.5,137C 341.978,135.697 342.645,134.531 343.5,133.5 Z"/></g>
<g><path style="opacity:1" fill="#97b3f0" d="M 291.5,136.5 C 290.89,137.391 290.557,138.391 290.5,139.5C 289.115,138.053 289.448,137.053 291.5,136.5 Z"/></g>
<g><path style="opacity:1" fill="#346ce4" d="M 339.5,160.5 C 337.928,161.687 336.261,162.687 334.5,163.5C 328.131,163.653 321.797,163.32 315.5,162.5C 317.316,156.905 319.816,151.572 323,146.5C 324.845,142.205 327.512,141.538 331,144.5C 334.128,149.76 336.961,155.094 339.5,160.5 Z"/></g>
<g><path style="opacity:1" fill="#b2c5f4" d="M 339.5,160.5 C 340.773,161.077 340.773,161.743 339.5,162.5C 337.929,163.309 336.262,163.643 334.5,163.5C 336.261,162.687 337.928,161.687 339.5,160.5 Z"/></g>
<g><path style="opacity:1" fill="#bab9b9" d="M 62.5,229.5 C 63.1667,244.833 63.8333,260.167 64.5,275.5C 64.44,276.043 64.1067,276.376 63.5,276.5C 62.5006,260.848 62.1673,245.181 62.5,229.5 Z"/></g>
<g><path style="opacity:1" fill="#353333" d="M 62.5,229.5 C 62.1673,245.181 62.5006,260.848 63.5,276.5C 64.1067,276.376 64.44,276.043 64.5,275.5C 69.1983,269.143 73.865,262.81 78.5,256.5C 84.0262,256.179 89.3595,256.512 94.5,257.5C 88.07,265.103 81.4033,272.603 74.5,280C 83.1453,289.136 90.812,298.97 97.5,309.5C 91.9327,310.804 86.266,310.804 80.5,309.5C 75.9388,301.276 70.6054,293.61 64.5,286.5C 64.44,285.957 64.1067,285.624 63.5,285.5C 62.5021,293.807 62.1688,302.14 62.5,310.5C 57.8333,310.5 53.1667,310.5 48.5,310.5C 48.5,284.167 48.5,257.833 48.5,231.5C 53.1667,230.833 57.8333,230.167 62.5,229.5 Z"/></g>
<g><path style="opacity:1" fill="#363434" d="M 166.5,309.5 C 166.176,283.426 166.51,257.426 167.5,231.5C 171.394,230.407 175.394,229.74 179.5,229.5C 179.168,238.525 179.502,247.525 180.5,256.5C 197.09,251.211 207.923,256.878 213,273.5C 214.673,283.763 213.007,293.429 208,302.5C 201.484,309.835 193.317,312.835 183.5,311.5C 177.674,311.692 172.007,311.025 166.5,309.5 Z"/></g>
<g><path style="opacity:1" fill="#575656" d="M 167.5,231.5 C 166.51,257.426 166.176,283.426 166.5,309.5C 165.833,296.671 165.5,283.671 165.5,270.5C 165.501,257.149 166.167,244.149 167.5,231.5 Z"/></g>
<g><path style="opacity:1" fill="#363434" d="M 477.5,240.5 C 479.167,240.5 480.833,240.5 482.5,240.5C 482.179,245.695 482.513,250.695 483.5,255.5C 490.648,256.492 497.981,256.825 505.5,256.5C 505.5,260.167 505.5,263.833 505.5,267.5C 497.833,267.5 490.167,267.5 482.5,267.5C 482.174,276.349 482.507,285.016 483.5,293.5C 483.84,295.679 484.84,297.512 486.5,299C 492.768,300.052 498.768,299.218 504.5,296.5C 506.255,300.767 506.589,305.101 505.5,309.5C 495.838,311.834 486.171,312.001 476.5,310C 471.283,305.734 468.617,300.234 468.5,293.5C 468.5,284.833 468.5,276.167 468.5,267.5C 464.5,267.5 460.5,267.5 456.5,267.5C 456.5,263.833 456.5,260.167 456.5,256.5C 460.702,256.817 464.702,256.483 468.5,255.5C 468.5,250.833 468.5,246.167 468.5,241.5C 471.455,240.841 474.455,240.508 477.5,240.5 Z"/></g>
<g><path style="opacity:1" fill="#9e9e9e" d="M 477.5,240.5 C 479.265,239.539 481.265,239.205 483.5,239.5C 483.5,244.833 483.5,250.167 483.5,255.5C 482.513,250.695 482.179,245.695 482.5,240.5C 480.833,240.5 479.167,240.5 477.5,240.5 Z"/></g>
<g><path style="opacity:1" fill="#6c6a6a" d="M 78.5,256.5 C 84.0129,255.184 89.6796,255.184 95.5,256.5C 95.3764,257.107 95.0431,257.44 94.5,257.5C 89.3595,256.512 84.0262,256.179 78.5,256.5 Z"/></g>
<g><path style="opacity:1" fill="#747272" d="M 483.5,255.5 C 491.167,255.5 498.833,255.5 506.5,255.5C 506.5,259.5 506.5,263.5 506.5,267.5C 506.167,267.5 505.833,267.5 505.5,267.5C 505.5,263.833 505.5,260.167 505.5,256.5C 497.981,256.825 490.648,256.492 483.5,255.5 Z"/></g>
<g><path style="opacity:1" fill="#363434" d="M 270.5,272.5 C 270.5,277.5 270.5,282.5 270.5,287.5C 258.833,287.5 247.167,287.5 235.5,287.5C 235.232,289.099 235.566,290.432 236.5,291.5C 237.989,295.153 240.656,297.653 244.5,299C 251.919,299.699 259.252,299.199 266.5,297.5C 266.83,300.157 267.163,302.824 267.5,305.5C 267.351,307.32 266.684,308.82 265.5,310C 255.805,311.903 246.139,311.903 236.5,310C 223.466,302.597 218.299,291.43 221,276.5C 227.61,255.615 241.11,249.449 261.5,258C 266.419,261.676 269.419,266.51 270.5,272.5 Z"/></g>
<g><path style="opacity:1" fill="#363434" d="M 328.5,256.5 C 328.296,259.518 327.963,262.518 327.5,265.5C 327.5,266.167 327.5,266.833 327.5,267.5C 326.833,268.167 326.167,268.833 325.5,269.5C 317.469,268.413 309.469,268.413 301.5,269.5C 300.501,283.15 300.167,296.817 300.5,310.5C 295.833,310.5 291.167,310.5 286.5,310.5C 286.167,293.154 286.5,275.821 287.5,258.5C 300.955,253.944 314.621,253.277 328.5,256.5 Z"/></g>
<g><path style="opacity:1" fill="#3a3838" d="M 355.5,310.5 C 355.667,296.163 355.5,281.829 355,267.5C 354.5,281.163 354.333,294.829 354.5,308.5C 350.833,308.5 347.167,308.5 343.5,308.5C 343.5,291.5 343.5,274.5 343.5,257.5C 344.492,257.672 345.158,257.338 345.5,256.5C 355.892,253.709 366.225,253.876 376.5,257C 382.07,260.63 385.237,265.797 386,272.5C 386.5,285.162 386.667,297.829 386.5,310.5C 381.5,310.5 376.5,310.5 371.5,310.5C 371.667,297.829 371.5,285.162 371,272.5C 370.215,270.714 369.049,269.214 367.5,268C 363.848,267.501 360.182,267.335 356.5,267.5C 356.829,282.01 356.496,296.343 355.5,310.5 Z"/></g>
<g><path style="opacity:1" fill="#383636" d="M 447.5,287.5 C 435.5,287.5 423.5,287.5 411.5,287.5C 411.232,289.099 411.566,290.432 412.5,291.5C 413.989,295.153 416.656,297.653 420.5,299C 428.257,299.732 435.923,299.232 443.5,297.5C 443.505,301.534 443.838,305.534 444.5,309.5C 434.937,311.408 425.271,311.908 415.5,311C 406.573,307.74 400.739,301.573 398,292.5C 393.291,274.919 399.125,262.419 415.5,255C 439.012,253.013 449.679,263.846 447.5,287.5 Z"/></g>
<g><path style="opacity:1" fill="#363434" d="M 564.5,287.5 C 552.5,287.5 540.5,287.5 528.5,287.5C 528.263,288.791 528.596,289.791 529.5,290.5C 530.732,295.13 533.732,297.964 538.5,299C 546.061,299.926 553.394,299.093 560.5,296.5C 560.927,300.824 561.261,305.158 561.5,309.5C 552.261,311.395 542.927,311.895 533.5,311C 524.026,308.193 517.86,302.026 515,292.5C 511.328,264.171 523.495,252.005 551.5,256C 562.824,263.329 567.157,273.829 564.5,287.5 Z"/></g>
<g><path style="opacity:1" fill="#373535" d="M 590.5,254.5 C 599.585,254.23 608.585,254.897 617.5,256.5C 617.414,260.857 617.08,265.19 616.5,269.5C 609.076,266.778 601.409,265.945 593.5,267C 592.196,267.804 591.529,268.971 591.5,270.5C 592.269,273.104 593.936,274.938 596.5,276C 605.194,277.596 612.694,281.43 619,287.5C 623.63,300.626 619.13,308.459 605.5,311C 598.5,311.667 591.5,311.667 584.5,311C 580.995,310.343 577.995,308.843 575.5,306.5C 576.042,302.689 577.042,299.022 578.5,295.5C 586.72,299.294 595.387,300.461 604.5,299C 607.167,296.667 607.167,294.333 604.5,292C 597.266,289.922 590.266,287.256 583.5,284C 574.695,275.931 574.362,267.597 582.5,259C 585.099,257.205 587.766,255.705 590.5,254.5 Z"/></g>
<g><path style="opacity:1" fill="#363434" d="M 142.5,310.5 C 135.869,311.331 129.202,311.664 122.5,311.5C 113.429,310.093 108.429,304.76 107.5,295.5C 108.495,283.011 108.829,270.344 108.5,257.5C 112.167,257.5 115.833,257.5 119.5,257.5C 119.168,269.249 119.501,280.249 120.5,290.5C 120.833,290.5 121.167,290.5 121.5,290.5C 122.714,299.285 127.548,301.952 136,298.5C 136.5,284.171 136.667,269.837 136.5,255.5C 141.167,255.5 145.833,255.5 150.5,255.5C 150.5,273.5 150.5,291.5 150.5,309.5C 147.794,309.575 145.127,309.908 142.5,310.5 Z"/></g>
<g><path style="opacity:1" fill="#252222" d="M 120.5,290.5 C 119.501,280.249 119.168,269.249 119.5,257.5C 115.833,257.5 112.167,257.5 108.5,257.5C 108.829,270.344 108.495,283.011 107.5,295.5C 107.5,294.833 107.5,294.167 107.5,293.5C 107.5,281.167 107.5,268.833 107.5,256.5C 111.833,256.5 116.167,256.5 120.5,256.5C 120.5,267.833 120.5,279.167 120.5,290.5 Z"/></g>
<g><path style="opacity:1" fill="#5e5d5d" d="M 121.5,290.5 C 121.167,290.5 120.833,290.5 120.5,290.5C 120.5,279.167 120.5,267.833 120.5,256.5C 116.167,256.5 111.833,256.5 107.5,256.5C 107.5,268.833 107.5,281.167 107.5,293.5C 106.505,281.011 106.171,268.344 106.5,255.5C 111.5,255.5 116.5,255.5 121.5,255.5C 121.5,267.167 121.5,278.833 121.5,290.5 Z"/></g>
<g><path style="opacity:1" fill="#7a7979" d="M 468.5,255.5 C 464.702,256.483 460.702,256.817 456.5,256.5C 456.5,260.167 456.5,263.833 456.5,267.5C 456.167,267.5 455.833,267.5 455.5,267.5C 455.5,263.5 455.5,259.5 455.5,255.5C 459.833,255.5 464.167,255.5 468.5,255.5 Z"/></g>
<g><path style="opacity:1" fill="#5e5b5b" d="M 345.5,256.5 C 345.158,257.338 344.492,257.672 343.5,257.5C 342.503,274.992 342.17,292.659 342.5,310.5C 341.503,292.674 341.17,274.674 341.5,256.5C 342.833,256.5 344.167,256.5 345.5,256.5 Z"/></g>
<g><path style="opacity:1" fill="#b8b8b8" d="M 328.5,256.5 C 329.634,258.966 329.801,261.633 329,264.5C 328.617,265.056 328.117,265.389 327.5,265.5C 327.963,262.518 328.296,259.518 328.5,256.5 Z"/></g>
<g><path style="opacity:1" fill="#b0b0b0" d="M 191.5,267.5 C 188.14,267.616 184.807,267.949 181.5,268.5C 184.708,266.469 188.041,266.135 191.5,267.5 Z"/></g>
<g><path style="opacity:1" fill="#fbfbfb" d="M 191.5,267.5 C 197.129,270.594 199.462,275.427 198.5,282C 198.976,287.236 197.81,292.069 195,296.5C 193.887,297.305 192.721,297.972 191.5,298.5C 187.833,298.5 184.167,298.5 180.5,298.5C 180.5,288.833 180.5,279.167 180.5,269.5C 180.5,268.833 180.833,268.5 181.5,268.5C 184.807,267.949 188.14,267.616 191.5,267.5 Z"/></g>
<g><path style="opacity:1" fill="#f8f8f8" d="M 257.5,277.5 C 250.5,277.5 243.5,277.5 236.5,277.5C 236.5,276.5 236.5,275.5 236.5,274.5C 238.62,267.602 243.287,265.102 250.5,267C 255.212,268.926 257.545,272.426 257.5,277.5 Z"/></g>
<g><path style="opacity:1" fill="#282626" d="M 343.5,257.5 C 343.5,274.5 343.5,291.5 343.5,308.5C 347.167,308.5 350.833,308.5 354.5,308.5C 354.333,294.829 354.5,281.163 355,267.5C 355.5,281.829 355.667,296.163 355.5,310.5C 351.167,310.5 346.833,310.5 342.5,310.5C 342.17,292.659 342.503,274.992 343.5,257.5 Z"/></g>
<g><path style="opacity:1" fill="#f7f7f7" d="M 418.5,266.5 C 424.734,265.373 429.568,267.373 433,272.5C 433.494,274.134 433.66,275.801 433.5,277.5C 426.167,277.5 418.833,277.5 411.5,277.5C 412.087,272.646 414.42,268.979 418.5,266.5 Z"/></g>
<g><path style="opacity:1" fill="#f7f7f7" d="M 550.5,273.5 C 550.5,274.833 550.5,276.167 550.5,277.5C 543.5,277.5 536.5,277.5 529.5,277.5C 529.5,276.5 529.5,275.5 529.5,274.5C 532.73,266.533 538.396,264.366 546.5,268C 548.464,269.451 549.797,271.284 550.5,273.5 Z"/></g>
<g><path style="opacity:1" fill="#898888" d="M 327.5,267.5 C 327.719,268.675 327.386,269.675 326.5,270.5C 325.893,270.376 325.56,270.043 325.5,269.5C 326.167,268.833 326.833,268.167 327.5,267.5 Z"/></g>
<g><path style="opacity:1" fill="#dad9d9" d="M 455.5,267.5 C 455.833,267.5 456.167,267.5 456.5,267.5C 460.5,267.5 464.5,267.5 468.5,267.5C 468.5,276.167 468.5,284.833 468.5,293.5C 467.507,285.35 467.174,277.017 467.5,268.5C 463.298,268.817 459.298,268.483 455.5,267.5 Z"/></g>
<g><path style="opacity:1" fill="#afafaf" d="M 505.5,267.5 C 505.833,267.5 506.167,267.5 506.5,267.5C 499.018,268.492 491.352,268.825 483.5,268.5C 483.5,276.833 483.5,285.167 483.5,293.5C 482.507,285.016 482.174,276.349 482.5,267.5C 490.167,267.5 497.833,267.5 505.5,267.5 Z"/></g>
<g><path style="opacity:1" fill="#acaaaa" d="M 180.5,269.5 C 180.5,279.167 180.5,288.833 180.5,298.5C 184.167,298.5 187.833,298.5 191.5,298.5C 187.702,299.483 183.702,299.817 179.5,299.5C 179.173,289.319 179.506,279.319 180.5,269.5 Z"/></g>
<g><path style="opacity:1" fill="#8a8989" d="M 236.5,274.5 C 236.5,275.5 236.5,276.5 236.5,277.5C 243.5,277.5 250.5,277.5 257.5,277.5C 250.352,278.492 243.019,278.825 235.5,278.5C 235.232,276.901 235.566,275.568 236.5,274.5 Z"/></g>
<g><path style="opacity:1" fill="#838282" d="M 550.5,273.5 C 551.451,274.919 551.784,276.585 551.5,278.5C 543.833,278.5 536.167,278.5 528.5,278.5C 528.232,276.901 528.566,275.568 529.5,274.5C 529.5,275.5 529.5,276.5 529.5,277.5C 536.5,277.5 543.5,277.5 550.5,277.5C 550.5,276.167 550.5,274.833 550.5,273.5 Z"/></g>
<g><path style="opacity:1" fill="#bab9b9" d="M 64.5,286.5 C 63.8333,294.5 63.1667,302.5 62.5,310.5C 62.1688,302.14 62.5021,293.807 63.5,285.5C 64.1067,285.624 64.44,285.957 64.5,286.5 Z"/></g>
<g><path style="opacity:1" fill="#939191" d="M 270.5,272.5 C 271.488,277.64 271.821,282.974 271.5,288.5C 259.833,288.5 248.167,288.5 236.5,288.5C 236.5,289.5 236.5,290.5 236.5,291.5C 235.566,290.432 235.232,289.099 235.5,287.5C 247.167,287.5 258.833,287.5 270.5,287.5C 270.5,282.5 270.5,277.5 270.5,272.5 Z"/></g>
<g><path style="opacity:1" fill="#9e9c9c" d="M 447.5,287.5 C 436.012,288.495 424.345,288.828 412.5,288.5C 412.5,289.5 412.5,290.5 412.5,291.5C 411.566,290.432 411.232,289.099 411.5,287.5C 423.5,287.5 435.5,287.5 447.5,287.5 Z"/></g>
<g><path style="opacity:1" fill="#9a9898" d="M 564.5,287.5 C 552.631,287.841 540.964,288.841 529.5,290.5C 528.596,289.791 528.263,288.791 528.5,287.5C 540.5,287.5 552.5,287.5 564.5,287.5 Z"/></g>
<g><path style="opacity:1" fill="#cdcccc" d="M 80.5,309.5 C 86.266,310.804 91.9327,310.804 97.5,309.5C 98.0431,309.56 98.3764,309.893 98.5,310.5C 95.5,310.833 92.5,311.167 89.5,311.5C 86.0866,311.483 83.0866,310.816 80.5,309.5 Z"/></g>
<g><path style="opacity:1" fill="#c0c0c0" d="M 142.5,310.5 C 138.966,312.048 135.133,312.714 131,312.5C 127.979,312.498 125.146,312.164 122.5,311.5C 129.202,311.664 135.869,311.331 142.5,310.5 Z"/></g>
</svg>
