<?xml version="1.0" encoding="UTF-8"?>
<!DOCTYPE svg PUBLIC "-//W3C//DTD SVG 1.1//EN" "http://www.w3.org/Graphics/SVG/1.1/DTD/svg11.dtd">
<svg xmlns="http://www.w3.org/2000/svg" version="1.1" width="2101px" height="931px" style="shape-rendering:geometricPrecision; text-rendering:geometricPrecision; image-rendering:optimizeQuality; fill-rule:evenodd; clip-rule:evenodd" xmlns:xlink="http://www.w3.org/1999/xlink">
<g><path style="opacity:1" fill="#fefefe" d="M -0.5,-0.5 C 699.833,-0.5 1400.17,-0.5 2100.5,-0.5C 2100.5,309.833 2100.5,620.167 2100.5,930.5C 1400.17,930.5 699.833,930.5 -0.5,930.5C -0.5,620.167 -0.5,309.833 -0.5,-0.5 Z"/></g>
<g><path style="opacity:1" fill="#00b04f" d="M 214.5,383.5 C 204.167,383.5 193.833,383.5 183.5,383.5C 183.5,376.5 183.5,369.5 183.5,362.5C 193.833,362.5 204.167,362.5 214.5,362.5C 214.5,369.5 214.5,376.5 214.5,383.5 Z"/></g>
<g><path style="opacity:1" fill="#fe0000" d="M 183.5,383.5 C 193.833,383.5 204.167,383.5 214.5,383.5C 214.5,387.167 214.5,390.833 214.5,394.5C 204.167,394.5 193.833,394.5 183.5,394.5C 183.5,390.833 183.5,387.167 183.5,383.5 Z"/></g>
<g><path style="opacity:1" fill="#090909" d="M 1465.5,390.5 C 1477.32,389.486 1482.49,394.819 1481,406.5C 1475,414.725 1468.34,415.392 1461,408.5C 1456.89,401.071 1458.39,395.071 1465.5,390.5 Z"/></g>
<g><path style="opacity:1" fill="#010101" d="M 868.5,406.5 C 867.596,407.209 867.263,408.209 867.5,409.5C 865.833,409.5 864.167,409.5 862.5,409.5C 841.974,406.817 833.308,415.817 836.5,436.5C 845.833,436.5 855.167,436.5 864.5,436.5C 864.5,441.5 864.5,446.5 864.5,451.5C 855.167,451.5 845.833,451.5 836.5,451.5C 836.5,465.167 836.5,478.833 836.5,492.5C 830.833,492.5 825.167,492.5 819.5,492.5C 819.5,478.833 819.5,465.167 819.5,451.5C 812.167,451.5 804.833,451.5 797.5,451.5C 797.5,446.5 797.5,441.5 797.5,436.5C 804.833,436.5 812.167,436.5 819.5,436.5C 819.225,428.447 819.725,420.447 821,412.5C 825.209,401.623 833.043,395.123 844.5,393C 852.849,392.427 861.182,392.593 869.5,393.5C 869.414,397.857 869.08,402.19 868.5,406.5 Z"/></g>
<g><path style="opacity:1" fill="#060606" d="M 562.5,393.5 C 575.167,393.5 587.833,393.5 600.5,393.5C 600.333,418.502 600.5,443.502 601,468.5C 601.833,472 604,474.167 607.5,475C 614.054,475.706 620.387,474.873 626.5,472.5C 628.009,478.75 629.009,485.083 629.5,491.5C 619.24,493.296 608.907,493.796 598.5,493C 588.607,489.426 583.441,482.259 583,471.5C 582.5,451.169 582.333,430.836 582.5,410.5C 575.833,410.5 569.167,410.5 562.5,410.5C 562.5,404.833 562.5,399.167 562.5,393.5 Z"/></g>
<g><path style="opacity:1" fill="#00b04f" d="M 183.5,394.5 C 193.833,394.5 204.167,394.5 214.5,394.5C 214.5,441.833 214.5,489.167 214.5,536.5C 753.5,536.5 1292.5,536.5 1831.5,536.5C 1831.5,541.833 1831.5,547.167 1831.5,552.5C 1282.17,552.5 732.833,552.5 183.5,552.5C 183.5,499.833 183.5,447.167 183.5,394.5 Z"/></g>
<g><path style="opacity:1" fill="#7e7e7e" d="M 278.5,399.5 C 268.833,399.5 259.167,399.5 249.5,399.5C 249.5,430.5 249.5,461.5 249.5,492.5C 248.502,461.338 248.168,430.004 248.5,398.5C 258.681,398.173 268.681,398.506 278.5,399.5 Z"/></g>
<g><path style="opacity:1" fill="#020202" d="M 278.5,399.5 C 301.083,401.582 313.583,413.916 316,436.5C 318.3,450.997 315.966,464.663 309,477.5C 302.198,485.318 293.698,490.151 283.5,492C 272.172,492.5 260.838,492.667 249.5,492.5C 249.5,461.5 249.5,430.5 249.5,399.5C 259.167,399.5 268.833,399.5 278.5,399.5 Z"/></g>
<g><path style="opacity:1" fill="#050505" d="M 322.5,398.5 C 329.833,398.5 337.167,398.5 344.5,398.5C 349.199,408.901 354.199,419.234 359.5,429.5C 364.961,419.412 370.294,409.246 375.5,399C 382.833,398.333 390.167,398.333 397.5,399C 387.325,414.348 377.659,430.015 368.5,446C 377.619,461.289 386.953,476.455 396.5,491.5C 389.276,492.812 382.109,492.812 375,491.5C 369.833,481.833 364.667,472.167 359.5,462.5C 354.245,472.01 349.245,481.676 344.5,491.5C 337.167,492.833 329.833,492.833 322.5,491.5C 332.099,476.63 341.432,461.63 350.5,446.5C 341.159,430.483 331.826,414.483 322.5,398.5 Z"/></g>
<g><path style="opacity:1" fill="#040404" d="M 487.5,398.5 C 502.606,397.885 517.606,398.718 532.5,401C 549.681,408.193 556.181,421.026 552,439.5C 549.379,452.122 541.879,460.289 529.5,464C 521.571,465.363 513.571,465.863 505.5,465.5C 505.5,474.5 505.5,483.5 505.5,492.5C 499.5,492.5 493.5,492.5 487.5,492.5C 487.5,461.167 487.5,429.833 487.5,398.5 Z"/></g>
<g><path style="opacity:1" fill="#000000" d="M 1263.5,399.5 C 1263.5,404.5 1263.5,409.5 1263.5,414.5C 1247.83,414.5 1232.17,414.5 1216.5,414.5C 1216.5,422.167 1216.5,429.833 1216.5,437.5C 1228.17,437.5 1239.83,437.5 1251.5,437.5C 1251.5,442.833 1251.5,448.167 1251.5,453.5C 1239.83,453.5 1228.17,453.5 1216.5,453.5C 1216.5,461.167 1216.5,468.833 1216.5,476.5C 1232.17,476.5 1247.83,476.5 1263.5,476.5C 1263.5,481.833 1263.5,487.167 1263.5,492.5C 1242.17,492.5 1220.83,492.5 1199.5,492.5C 1199.5,461.5 1199.5,430.5 1199.5,399.5C 1220.83,399.5 1242.17,399.5 1263.5,399.5 Z"/></g>
<g><path style="opacity:1" fill="#040404" d="M 735.5,439.5 C 730.36,438.512 725.026,438.179 719.5,438.5C 719.5,433.167 719.5,427.833 719.5,422.5C 724.833,422.5 730.167,422.5 735.5,422.5C 735.5,415.5 735.5,408.5 735.5,401.5C 741.5,401.5 747.5,401.5 753.5,401.5C 753.5,408.5 753.5,415.5 753.5,422.5C 763.833,422.5 774.167,422.5 784.5,422.5C 784.5,428.167 784.5,433.833 784.5,439.5C 774.167,439.5 763.833,439.5 753.5,439.5C 753.334,448.506 753.5,457.506 754,466.5C 755.096,471.26 757.929,474.427 762.5,476C 770.195,476.691 777.861,476.525 785.5,475.5C 786.134,481.145 786.468,486.811 786.5,492.5C 775.471,493.968 764.471,493.802 753.5,492C 743.718,488.55 737.884,481.717 736,471.5C 735.5,460.839 735.333,450.172 735.5,439.5 Z"/></g>
<g><path style="opacity:1" fill="#757575" d="M 868.5,406.5 C 868.5,407.833 868.5,409.167 868.5,410.5C 866.265,410.795 864.265,410.461 862.5,409.5C 864.167,409.5 865.833,409.5 867.5,409.5C 867.263,408.209 867.596,407.209 868.5,406.5 Z"/></g>
<g><path style="opacity:1" fill="#8c8c8c" d="M 1263.5,399.5 C 1242.17,399.5 1220.83,399.5 1199.5,399.5C 1199.5,430.5 1199.5,461.5 1199.5,492.5C 1198.5,461.338 1198.17,430.004 1198.5,398.5C 1220.34,398.169 1242.01,398.503 1263.5,399.5 Z"/></g>
<g><path style="opacity:1" fill="#696969" d="M 520.5,415.5 C 515.5,415.5 510.5,415.5 505.5,415.5C 505.5,426.833 505.5,438.167 505.5,449.5C 504.505,438.012 504.172,426.345 504.5,414.5C 510.026,414.179 515.36,414.512 520.5,415.5 Z"/></g>
<g><path style="opacity:1" fill="#fcfcfc" d="M 520.5,415.5 C 533.219,418.734 537.386,426.734 533,439.5C 531.098,444.4 527.598,447.567 522.5,449C 516.843,449.499 511.176,449.666 505.5,449.5C 505.5,438.167 505.5,426.833 505.5,415.5C 510.5,415.5 515.5,415.5 520.5,415.5 Z"/></g>
<g><path style="opacity:1" fill="#fcfcfc" d="M 266.5,415.5 C 288.022,414.188 298.689,424.354 298.5,446C 298.913,467.751 288.246,477.585 266.5,475.5C 266.5,455.5 266.5,435.5 266.5,415.5 Z"/></g>
<g><path style="opacity:1" fill="#040404" d="M 904.5,421.5 C 925.576,418.598 938.743,427.264 944,447.5C 945.526,458.56 944.192,469.226 940,479.5C 931.149,491.356 919.316,495.856 904.5,493C 891.286,489.1 883.786,480.267 882,466.5C 880.44,455.757 881.773,445.424 886,435.5C 890.49,428.517 896.657,423.85 904.5,421.5 Z"/></g>
<g><path style="opacity:1" fill="#030303" d="M 956.5,477.5 C 961.5,477.5 966.5,477.5 971.5,477.5C 971.5,464.167 971.5,450.833 971.5,437.5C 967.5,437.5 963.5,437.5 959.5,437.5C 959.5,432.5 959.5,427.5 959.5,422.5C 968.525,422.168 977.525,422.502 986.5,423.5C 987.575,428.434 988.242,433.434 988.5,438.5C 989.5,438.5 990.5,438.5 991.5,438.5C 992.913,424.762 1000.58,419.262 1014.5,422C 1021.4,424.568 1025.9,429.402 1028,436.5C 1029.08,440.77 1029.58,445.103 1029.5,449.5C 1023.5,449.5 1017.5,449.5 1011.5,449.5C 1011.67,439.855 1007,436.355 997.5,439C 993.06,442.376 990.56,446.876 990,452.5C 989.5,460.827 989.334,469.16 989.5,477.5C 994.833,477.5 1000.17,477.5 1005.5,477.5C 1005.5,482.5 1005.5,487.5 1005.5,492.5C 989.167,492.5 972.833,492.5 956.5,492.5C 956.5,487.5 956.5,482.5 956.5,477.5 Z"/></g>
<g><path style="opacity:1" fill="#050505" d="M 1062.5,421.5 C 1070.65,420.313 1075.98,423.646 1078.5,431.5C 1081.34,422.515 1087.34,419.348 1096.5,422C 1100.06,423.892 1102.56,426.725 1104,430.5C 1104.5,451.164 1104.67,471.831 1104.5,492.5C 1098.5,492.5 1092.5,492.5 1086.5,492.5C 1086.67,474.83 1086.5,457.164 1086,439.5C 1082.02,437.476 1079.35,438.476 1078,442.5C 1077.5,459.163 1077.33,475.83 1077.5,492.5C 1073.17,492.5 1068.83,492.5 1064.5,492.5C 1064.67,474.83 1064.5,457.164 1064,439.5C 1060.61,437.725 1057.94,438.392 1056,441.5C 1055.5,458.497 1055.33,475.497 1055.5,492.5C 1049.5,492.5 1043.5,492.5 1037.5,492.5C 1037.5,469.167 1037.5,445.833 1037.5,422.5C 1043.17,422.5 1048.83,422.5 1054.5,422.5C 1054.05,432.983 1055.55,433.65 1059,424.5C 1060.52,423.837 1061.69,422.837 1062.5,421.5 Z"/></g>
<g><path style="opacity:1" fill="#020202" d="M 1309.5,421.5 C 1324.19,419.411 1333.36,425.411 1337,439.5C 1337.5,457.164 1337.67,474.83 1337.5,492.5C 1331.83,492.5 1326.17,492.5 1320.5,492.5C 1320.67,477.496 1320.5,462.496 1320,447.5C 1316.53,438.083 1310.36,435.916 1301.5,441C 1299.35,443.469 1297.85,446.302 1297,449.5C 1296.5,463.829 1296.33,478.163 1296.5,492.5C 1290.5,492.5 1284.5,492.5 1278.5,492.5C 1278.5,469.167 1278.5,445.833 1278.5,422.5C 1284.17,422.5 1289.83,422.5 1295.5,422.5C 1295.15,427.012 1295.82,431.345 1297.5,435.5C 1299.12,428.567 1303.12,423.9 1309.5,421.5 Z"/></g>
<g><path style="opacity:1" fill="#030303" d="M 1373.5,421.5 C 1382.35,419.914 1389.85,422.248 1396,428.5C 1396.68,430.895 1397.51,433.228 1398.5,435.5C 1399.23,431.489 1399.89,427.489 1400.5,423.5C 1405.79,422.505 1411.13,422.172 1416.5,422.5C 1416.67,446.836 1416.5,471.169 1416,495.5C 1414.6,508.897 1407.43,517.397 1394.5,521C 1382.93,523.051 1371.27,523.884 1359.5,523.5C 1359.5,518.5 1359.5,513.5 1359.5,508.5C 1369.91,508.507 1380.25,507.673 1390.5,506C 1395.44,503.303 1398.27,499.136 1399,493.5C 1399.83,488.798 1399.66,484.131 1398.5,479.5C 1396.25,489.088 1390.25,493.755 1380.5,493.5C 1369.36,493.68 1361.53,488.68 1357,478.5C 1353.26,466.341 1352.6,454.008 1355,441.5C 1358.25,431.91 1364.42,425.243 1373.5,421.5 Z"/></g>
<g><path style="opacity:1" fill="#060606" d="M 1545.5,421.5 C 1561.07,419.19 1570.9,425.523 1575,440.5C 1575.5,457.83 1575.67,475.163 1575.5,492.5C 1569.5,492.5 1563.5,492.5 1557.5,492.5C 1557.67,476.83 1557.5,461.163 1557,445.5C 1553.86,438.872 1548.69,436.705 1541.5,439C 1537.62,441.928 1535.12,445.761 1534,450.5C 1533.5,464.496 1533.33,478.496 1533.5,492.5C 1527.5,492.5 1521.5,492.5 1515.5,492.5C 1515.5,469.167 1515.5,445.833 1515.5,422.5C 1521.17,422.5 1526.83,422.5 1532.5,422.5C 1532.05,427.051 1532.72,431.384 1534.5,435.5C 1535.99,429.022 1539.66,424.355 1545.5,421.5 Z"/></g>
<g><path style="opacity:1" fill="#040404" d="M 1615.5,421.5 C 1630.1,418.828 1641.94,423.162 1651,434.5C 1655.04,444.083 1656.54,454.083 1655.5,464.5C 1640.83,464.5 1626.17,464.5 1611.5,464.5C 1612.88,470.384 1616.55,474.217 1622.5,476C 1631.85,476.566 1641.18,476.399 1650.5,475.5C 1651.36,480.813 1651.53,486.146 1651,491.5C 1639.23,493.899 1627.4,494.066 1615.5,492C 1603.04,487.941 1595.54,479.441 1593,466.5C 1591.44,455.757 1592.77,445.424 1597,435.5C 1601.49,428.517 1607.66,423.85 1615.5,421.5 Z"/></g>
<g><path style="opacity:1" fill="#040404" d="M 1694.5,421.5 C 1724.83,419.746 1738.16,434.08 1734.5,464.5C 1719.83,464.5 1705.17,464.5 1690.5,464.5C 1691.88,470.384 1695.55,474.217 1701.5,476C 1710.85,476.61 1720.18,476.444 1729.5,475.5C 1730.49,481.125 1731.16,486.792 1731.5,492.5C 1720.51,493.416 1709.51,493.583 1698.5,493C 1683.78,490.071 1674.95,481.237 1672,466.5C 1670.44,455.757 1671.77,445.424 1676,435.5C 1680.49,428.517 1686.66,423.85 1694.5,421.5 Z"/></g>
<g><path style="opacity:1" fill="#020202" d="M 1819.5,442.5 C 1819.5,444.833 1819.5,447.167 1819.5,449.5C 1813.83,449.5 1808.17,449.5 1802.5,449.5C 1802.56,440.008 1797.89,436.508 1788.5,439C 1783.08,442.672 1780.41,447.839 1780.5,454.5C 1779.51,461.982 1779.17,469.648 1779.5,477.5C 1785.17,477.5 1790.83,477.5 1796.5,477.5C 1796.5,482.5 1796.5,487.5 1796.5,492.5C 1780.17,492.5 1763.83,492.5 1747.5,492.5C 1747.5,487.5 1747.5,482.5 1747.5,477.5C 1752.5,477.5 1757.5,477.5 1762.5,477.5C 1762.83,464.323 1762.5,451.323 1761.5,438.5C 1758.04,437.518 1754.37,437.185 1750.5,437.5C 1750.5,432.5 1750.5,427.5 1750.5,422.5C 1759.5,422.5 1768.5,422.5 1777.5,422.5C 1778,427.492 1778.5,432.492 1779,437.5C 1779.41,437.957 1779.91,438.291 1780.5,438.5C 1781.72,432.904 1784.38,428.071 1788.5,424C 1806.26,417.877 1816.6,424.044 1819.5,442.5 Z"/></g>
<g><path style="opacity:1" fill="#050505" d="M 651.5,422.5 C 664.83,421.428 677.83,422.928 690.5,427C 698.05,430.929 702.55,437.096 704,445.5C 704.333,455.833 704.667,466.167 705,476.5C 707.719,477.444 710.552,477.777 713.5,477.5C 713.5,482.5 713.5,487.5 713.5,492.5C 705.167,492.5 696.833,492.5 688.5,492.5C 688.571,487.4 687.904,482.4 686.5,477.5C 683.745,489.308 676.245,494.642 664,493.5C 649.885,493.551 642.385,486.551 641.5,472.5C 642.764,459.067 650.097,451.234 663.5,449C 671.202,448.269 678.869,448.436 686.5,449.5C 686.4,443.75 683.4,440.584 677.5,440C 668.568,438.619 659.568,438.119 650.5,438.5C 650.472,433.138 650.806,427.805 651.5,422.5 Z"/></g>
<g><path style="opacity:1" fill="#060606" d="M 1436.5,476.5 C 1445.17,476.5 1453.83,476.5 1462.5,476.5C 1462.83,463.989 1462.5,451.655 1461.5,439.5C 1454.5,439.5 1447.5,439.5 1440.5,439.5C 1440.5,433.833 1440.5,428.167 1440.5,422.5C 1453.83,422.5 1467.17,422.5 1480.5,422.5C 1480.5,440.167 1480.5,457.833 1480.5,475.5C 1487.17,475.5 1493.83,475.5 1500.5,475.5C 1500.5,481.167 1500.5,486.833 1500.5,492.5C 1479.17,492.5 1457.83,492.5 1436.5,492.5C 1436.5,487.167 1436.5,481.833 1436.5,476.5 Z"/></g>
<g><path style="opacity:1" fill="#676767" d="M 1750.5,422.5 C 1750.5,427.5 1750.5,432.5 1750.5,437.5C 1754.37,437.185 1758.04,437.518 1761.5,438.5C 1757.5,438.5 1753.5,438.5 1749.5,438.5C 1749.18,432.974 1749.51,427.64 1750.5,422.5 Z"/></g>
<g><path style="opacity:1" fill="#5b5b5b" d="M 719.5,422.5 C 719.5,427.833 719.5,433.167 719.5,438.5C 725.026,438.179 730.36,438.512 735.5,439.5C 729.833,439.5 724.167,439.5 718.5,439.5C 718.178,433.642 718.511,427.975 719.5,422.5 Z"/></g>
<g><path style="opacity:1" fill="#fafafa" d="M 908.5,438.5 C 917.559,437.063 923.393,440.729 926,449.5C 927.113,456.715 926.446,463.715 924,470.5C 919.824,476.112 914.324,477.945 907.5,476C 899.992,469.108 897.492,460.608 900,450.5C 901.147,445.204 903.98,441.204 908.5,438.5 Z"/></g>
<g><path style="opacity:1" fill="#cecece" d="M 959.5,422.5 C 959.5,427.5 959.5,432.5 959.5,437.5C 963.5,437.5 967.5,437.5 971.5,437.5C 971.5,450.833 971.5,464.167 971.5,477.5C 966.5,477.5 961.5,477.5 956.5,477.5C 960.97,476.514 965.637,476.181 970.5,476.5C 970.5,463.833 970.5,451.167 970.5,438.5C 966.5,438.5 962.5,438.5 958.5,438.5C 958.179,432.974 958.512,427.64 959.5,422.5 Z"/></g>
<g><path style="opacity:1" fill="#fafafa" d="M 1380.5,438.5 C 1389,436.665 1394.83,439.665 1398,447.5C 1400.08,455.259 1399.75,462.926 1397,470.5C 1395.88,472.624 1394.38,474.457 1392.5,476C 1382.49,479.25 1375.65,476.083 1372,466.5C 1370.87,458.955 1371.54,451.621 1374,444.5C 1376.06,442.266 1378.23,440.266 1380.5,438.5 Z"/></g>
<g><path style="opacity:1" fill="#f3f3f3" d="M 1620.5,437.5 C 1631.67,436.408 1637.67,441.408 1638.5,452.5C 1629.17,452.5 1619.83,452.5 1610.5,452.5C 1610.7,445.317 1614.03,440.317 1620.5,437.5 Z"/></g>
<g><path style="opacity:1" fill="#f9f9f9" d="M 1716.5,447.5 C 1716.5,448.833 1716.5,450.167 1716.5,451.5C 1707.5,451.5 1698.5,451.5 1689.5,451.5C 1691.62,439.226 1698.62,435.059 1710.5,439C 1713.85,440.851 1715.85,443.684 1716.5,447.5 Z"/></g>
<g><path style="opacity:1" fill="#838383" d="M 1761.5,438.5 C 1762.5,451.323 1762.83,464.323 1762.5,477.5C 1757.5,477.5 1752.5,477.5 1747.5,477.5C 1751.97,476.514 1756.64,476.181 1761.5,476.5C 1761.5,463.833 1761.5,451.167 1761.5,438.5 Z"/></g>
<g><path style="opacity:1" fill="#979797" d="M 1461.5,439.5 C 1462.5,451.655 1462.83,463.989 1462.5,476.5C 1453.83,476.5 1445.17,476.5 1436.5,476.5C 1444.65,475.507 1452.98,475.174 1461.5,475.5C 1461.5,463.5 1461.5,451.5 1461.5,439.5 Z"/></g>
<g><path style="opacity:1" fill="#9c9c9c" d="M 1819.5,442.5 C 1820.47,444.948 1820.81,447.615 1820.5,450.5C 1814.31,450.823 1808.31,450.49 1802.5,449.5C 1808.17,449.5 1813.83,449.5 1819.5,449.5C 1819.5,447.167 1819.5,444.833 1819.5,442.5 Z"/></g>
<g><path style="opacity:1" fill="#aaaaaa" d="M 1716.5,447.5 C 1717.45,448.919 1717.78,450.585 1717.5,452.5C 1707.99,452.827 1698.65,452.494 1689.5,451.5C 1698.5,451.5 1707.5,451.5 1716.5,451.5C 1716.5,450.167 1716.5,448.833 1716.5,447.5 Z"/></g>
<g><path style="opacity:1" fill="#7f7f7f" d="M 797.5,451.5 C 804.833,451.5 812.167,451.5 819.5,451.5C 819.5,465.167 819.5,478.833 819.5,492.5C 818.504,479.344 818.171,466.01 818.5,452.5C 811.313,452.825 804.313,452.491 797.5,451.5 Z"/></g>
<g><path style="opacity:1" fill="#a0a0a0" d="M 864.5,451.5 C 855.682,452.493 846.682,452.827 837.5,452.5C 837.829,466.01 837.496,479.344 836.5,492.5C 836.5,478.833 836.5,465.167 836.5,451.5C 845.833,451.5 855.167,451.5 864.5,451.5 Z"/></g>
<g><path style="opacity:1" fill="#f6f6f6" d="M 666.5,463.5 C 672.842,463.334 679.175,463.5 685.5,464C 686.276,471.272 682.943,475.939 675.5,478C 671.833,478.667 668.167,478.667 664.5,478C 659.962,476.287 658.462,473.12 660,468.5C 661.805,466.174 663.972,464.508 666.5,463.5 Z"/></g>
<g><path style="opacity:1" fill="#a3a3a3" d="M 1780.5,454.5 C 1780.5,461.833 1780.5,469.167 1780.5,476.5C 1786.03,476.179 1791.36,476.512 1796.5,477.5C 1790.83,477.5 1785.17,477.5 1779.5,477.5C 1779.17,469.648 1779.51,461.982 1780.5,454.5 Z"/></g>
</svg>
